<svg width="185" height="185" viewBox="0 0 185 185" fill="none" xmlns="http://www.w3.org/2000/svg">
<g clip-path="url(#clip0_214_17)">
<path d="M0 92.5C0 41.4137 41.4137 0 92.5 0H135C162.614 0 185 22.3858 185 50V92.5C185 143.586 143.586 185 92.5 185C41.4137 185 0 143.586 0 92.5Z" fill="url(#paint0_linear_214_17)"/>
<path d="M13.1605 111V74.6364H27.5071C30.2533 74.6364 32.5971 75.1276 34.5384 76.1101C36.4915 77.0807 37.977 78.4598 38.995 80.2472C40.0249 82.0227 40.5398 84.112 40.5398 86.5149C40.5398 88.9297 40.0189 91.0071 38.9773 92.7472C37.9356 94.4754 36.4264 95.8011 34.4496 96.7244C32.4846 97.6477 30.1054 98.1094 27.3118 98.1094H17.706V91.9304H26.0689C27.5367 91.9304 28.7559 91.7292 29.7266 91.3267C30.6972 90.9242 31.4193 90.3205 31.8928 89.5156C32.3781 88.7107 32.6207 87.7105 32.6207 86.5149C32.6207 85.3075 32.3781 84.2895 31.8928 83.4609C31.4193 82.6323 30.6913 82.005 29.7088 81.5788C28.7382 81.1409 27.513 80.9219 26.0334 80.9219H20.8487V111H13.1605ZM32.7983 94.4517L41.8359 111H33.3487L24.5064 94.4517H32.7983ZM53.608 111.515C51.8679 111.515 50.3172 111.213 48.956 110.609C47.5947 109.994 46.5175 109.088 45.7244 107.893C44.9432 106.685 44.5526 105.182 44.5526 103.383C44.5526 101.868 44.8307 100.595 45.3871 99.5653C45.9434 98.5355 46.701 97.7069 47.6598 97.0795C48.6186 96.4522 49.7076 95.9787 50.9268 95.6591C52.1579 95.3395 53.4482 95.1146 54.7976 94.9844C56.3838 94.8187 57.6622 94.6648 58.6328 94.5227C59.6035 94.3688 60.3078 94.1439 60.7457 93.848C61.1837 93.5521 61.4027 93.1141 61.4027 92.5341V92.4276C61.4027 91.303 61.0476 90.433 60.3374 89.8175C59.639 89.2019 58.6446 88.8942 57.3544 88.8942C55.9931 88.8942 54.91 89.196 54.1051 89.7997C53.3002 90.3916 52.7675 91.1373 52.5071 92.0369L45.5114 91.4688C45.8665 89.8116 46.5649 88.3793 47.6065 87.1719C48.6482 85.9527 49.9917 85.0175 51.6371 84.3665C53.2943 83.7036 55.2119 83.3722 57.3899 83.3722C58.9051 83.3722 60.3551 83.5497 61.7401 83.9048C63.1368 84.2599 64.3738 84.8104 65.451 85.5561C66.54 86.3018 67.3982 87.2607 68.0256 88.4325C68.6529 89.5926 68.9666 90.9834 68.9666 92.6051V111H61.7933V107.218H61.5803C61.1423 108.07 60.5563 108.822 59.8224 109.473C59.0885 110.112 58.2067 110.615 57.1768 110.982C56.147 111.337 54.9574 111.515 53.608 111.515ZM55.7741 106.295C56.8868 106.295 57.8693 106.076 58.7216 105.638C59.5739 105.188 60.2427 104.584 60.728 103.827C61.2133 103.069 61.456 102.211 61.456 101.252V98.358C61.2192 98.5118 60.8937 98.6539 60.4794 98.7841C60.0769 98.9025 59.6212 99.0149 59.1122 99.1214C58.6032 99.2161 58.0942 99.3049 57.5852 99.3878C57.0762 99.4588 56.6146 99.5239 56.2003 99.5831C55.3125 99.7133 54.5372 99.9205 53.8743 100.205C53.2114 100.489 52.6965 100.873 52.3295 101.359C51.9626 101.832 51.7791 102.424 51.7791 103.134C51.7791 104.164 52.152 104.951 52.8977 105.496C53.6553 106.028 54.6141 106.295 55.7741 106.295ZM74.8349 111V83.7273H82.3988V111H74.8349ZM78.6346 80.2116C77.5101 80.2116 76.5453 79.8388 75.7404 79.093C74.9473 78.3355 74.5508 77.4299 74.5508 76.3764C74.5508 75.3348 74.9473 74.4411 75.7404 73.6953C76.5453 72.9377 77.5101 72.5589 78.6346 72.5589C79.7591 72.5589 80.7179 72.9377 81.511 73.6953C82.3159 74.4411 82.7184 75.3348 82.7184 76.3764C82.7184 77.4299 82.3159 78.3355 81.511 79.093C80.7179 79.8388 79.7591 80.2116 78.6346 80.2116ZM93.1277 121.227C92.1689 121.227 91.2692 121.15 90.4288 120.996C89.6002 120.854 88.9136 120.671 88.3691 120.446L90.0737 114.8C90.9615 115.072 91.7605 115.22 92.4707 115.244C93.1928 115.267 93.8142 115.102 94.335 114.746C94.8677 114.391 95.2998 113.788 95.6312 112.935L96.0751 111.781L86.2917 83.7273H94.2463L99.8926 103.756H100.177L105.876 83.7273H113.884L103.284 113.947C102.775 115.415 102.082 116.694 101.206 117.783C100.342 118.884 99.2475 119.73 97.9217 120.322C96.5959 120.925 94.9979 121.227 93.1277 121.227ZM124.799 111.515C123.059 111.515 121.509 111.213 120.147 110.609C118.786 109.994 117.709 109.088 116.916 107.893C116.135 106.685 115.744 105.182 115.744 103.383C115.744 101.868 116.022 100.595 116.578 99.5653C117.135 98.5355 117.892 97.7069 118.851 97.0795C119.81 96.4522 120.899 95.9787 122.118 95.6591C123.349 95.3395 124.64 95.1146 125.989 94.9844C127.575 94.8187 128.854 94.6648 129.824 94.5227C130.795 94.3688 131.499 94.1439 131.937 93.848C132.375 93.5521 132.594 93.1141 132.594 92.5341V92.4276C132.594 91.303 132.239 90.433 131.529 89.8175C130.83 89.2019 129.836 88.8942 128.546 88.8942C127.185 88.8942 126.101 89.196 125.297 89.7997C124.492 90.3916 123.959 91.1373 123.699 92.0369L116.703 91.4688C117.058 89.8116 117.756 88.3793 118.798 87.1719C119.84 85.9527 121.183 85.0175 122.828 84.3665C124.486 83.7036 126.403 83.3722 128.581 83.3722C130.096 83.3722 131.547 83.5497 132.931 83.9048C134.328 84.2599 135.565 84.8104 136.642 85.5561C137.731 86.3018 138.59 87.2607 139.217 88.4325C139.844 89.5926 140.158 90.9834 140.158 92.6051V111H132.985V107.218H132.772C132.334 108.07 131.748 108.822 131.014 109.473C130.28 110.112 129.398 110.615 128.368 110.982C127.338 111.337 126.149 111.515 124.799 111.515ZM126.966 106.295C128.078 106.295 129.061 106.076 129.913 105.638C130.765 105.188 131.434 104.584 131.919 103.827C132.405 103.069 132.647 102.211 132.647 101.252V98.358C132.411 98.5118 132.085 98.6539 131.671 98.7841C131.268 98.9025 130.813 99.0149 130.304 99.1214C129.795 99.2161 129.286 99.3049 128.777 99.3878C128.268 99.4588 127.806 99.5239 127.392 99.5831C126.504 99.7133 125.729 99.9205 125.066 100.205C124.403 100.489 123.888 100.873 123.521 101.359C123.154 101.832 122.971 102.424 122.971 103.134C122.971 104.164 123.343 104.951 124.089 105.496C124.847 106.028 125.806 106.295 126.966 106.295ZM153.59 95.233V111H146.026V83.7273H153.235V88.5391H153.555C154.158 86.9529 155.17 85.6982 156.591 84.7749C158.011 83.8397 159.734 83.3722 161.758 83.3722C163.652 83.3722 165.303 83.7865 166.712 84.6151C168.12 85.4437 169.215 86.6274 169.996 88.1662C170.778 89.6932 171.168 91.5161 171.168 93.6349V111H163.604V94.9844C163.616 93.3153 163.19 92.0133 162.326 91.0781C161.462 90.1312 160.272 89.6577 158.757 89.6577C157.739 89.6577 156.839 89.8767 156.058 90.3146C155.289 90.7526 154.685 91.3918 154.247 92.2322C153.821 93.0608 153.602 94.0611 153.59 95.233Z" fill="black"/>
</g>
<defs>
<linearGradient id="paint0_linear_214_17" x1="0" y1="92" x2="185" y2="92" gradientUnits="userSpaceOnUse">
<stop stop-color="#88F973"/>
<stop offset="1" stop-color="#39FF14"/>
</linearGradient>
<clipPath id="clip0_214_17">
<rect width="185" height="185" fill="white"/>
</clipPath>
</defs>
</svg>
